# AST/ASF file generated using VICON BodyLanguage
# -----------------------------------------------
:version 1.10
:name VICON
:units
  mass 1.0
  length 0.45
  angle deg
:documentation
   .ast/.asf automatically generated from VICON data using
   VICON BodyBuilder and BodyLanguage model FoxedUp or BRILLIANT.MOD
:root
   order TX TY TZ RX RY RZ
   axis XYZ
   position 0 0 0  
   orientation 0 0 0 
:bonedata
  begin
     id 1 
     name lhipjoint
     direction 0.64773 -0.699417 0.302095 
     length 2.48597 
     axis 0 0 0  XYZ
  end
  begin
     id 2 
     name lfemur
     direction 0.34202 -0.939693 0  
     length 6.71947  
     axis 0 0 20  XYZ
    dof rx ry rz
    limits (-160.0 20.0)
           (-70.0 70.0)
           (-60.0 70.0)
  end
  begin
     id 3 
     name ltibia
     direction 0.34202 -0.939693 0   
     length 8.08777   
     axis 0 0 20   XYZ
    dof rx
    limits (-10.0 170.0)
  end
  begin
     id 4 
     name lfoot
     direction 0.0808503 -0.222134 0.971658   
     length 2.08264   
     axis -90 7.62852e-016 20   XYZ
    dof rx rz
    limits (-45.0 90.0)
           (-70.0 20.0)
  end
  begin
     id 5 
     name ltoes
     direction 1.53502e-011 -4.22007e-011 1   
     length 1.04662   
     axis -90 7.62852e-016 20   XYZ
    dof rx
    limits (-90.0 20.0)
  end
  begin
     id 6 
     name rhipjoint
     direction -0.610924 -0.726792 0.313919   
     length 2.39233  
     axis 0 0 0  XYZ 
  end
  begin
     id 7 
     name rfemur
     direction -0.34202 -0.939693 0   
     length 6.96955   
     axis 0 0 -20   XYZ
    dof rx ry rz
    limits (-160.0 20.0)
           (-70.0 70.0)
           (-70.0 60.0)
  end
  begin
     id 8 
     name rtibia
     direction -0.34202 -0.939693 0   
     length 8.19584   
     axis 0 0 -20   XYZ
    dof rx
    limits (-10.0 170.0)
 end
 begin
     id 9 
     name rfoot
     direction -0.077777 -0.213691 0.9738   
     length 2.07539  
     axis -90 -7.62852e-016 -20   XYZ
    dof rx rz
    limits (-45.0 90.0)
           (-20.0 70.0)
  end
  begin
     id 10 
     name rtoes
     direction -1.53558e-011 -4.22006e-011 1   
     length 1.04381   
     axis -90 -7.62852e-016 -20   XYZ
    dof rx
    limits (-90.0 20.0)
  end
  begin
     id 11 
     name lowerback
     direction -0.00971646 0.996074 0.0879841   
     length 1.67643   
     axis 0 0 0   XYZ
    dof rx ry rz
    limits (-20.0 45.0)
           (-30.0 30.0)
           (-30.0 30.0)
  end
  begin
     id 12 
     name upperback
     direction 0.0127391 0.991676 0.128127   
     length 1.63741   
     axis 0 0 0   XYZ
    dof rx ry rz
    limits (-20.0 45.0)
           (-30.0 30.0)
           (-30.0 30.0)
  end
  begin
     id 13 
     name thorax
     direction 0.0167583 0.996049 0.0872067   
     length 1.65931   
     axis 0 0 0   XYZ
    dof rx ry rz
    limits (-20.0 45.0)
           (-30.0 30.0)
           (-30.0 30.0)
  end
  begin
     id 14 
     name lowerneck
     direction -0.0317829 0.998312 0.0486079   
     length 1.79021   
     axis 0 0 0   XYZ
    dof rx ry rz
    limits (-20.0 45.0)
           (-30.0 30.0)
           (-30.0 30.0)
  end
  begin
     id 15 
     name upperneck
     direction 0.0896851 0.972452 -0.215159   
     length 1.78797   
     axis 0 0 0   XYZ
    dof rx ry rz
    limits (-20.0 45.0)
           (-30.0 30.0)
           (-30.0 30.0)
  end
  begin
     id 16
     name head
     direction 0.0310949 0.996503 -0.0775582  
     length 1.81549  
     axis 0 0 0   XYZ
    dof rx ry rz
    limits (-20.0 45.0)
           (-30.0 30.0)
           (-30.0 30.0)
  end
  begin
     id 17 
     name lclavicle
     direction 0.853638 0.502051 -0.138733  
     length 3.31627  
     axis 0 0 0   XYZ
    dof ry rz
    limits (-20.0 10.0)
           (0.0 20.0)
  end
  begin
     id 18 
     name lhumerus
     direction 1 -4.48962e-011 -1.41788e-018   
     length 5.54893   
     axis 180 -30 -90   XYZ
    dof rx ry rz
    limits (-60.0 90.0)
           (-90.0 90.0)
           (-90.0 90.0)
  end
  begin
     id 19
     name lradius
     direction 1 -4.48962e-011 -4.95754e-027   
     length 3.02898   
     axis 180 -30 -90   XYZ
    dof rx
    limits (-10.0 170.0)
  end
  begin
     id 20
     name lwrist
     direction 1 -4.48952e-011 -1.03764e-026   
     length 1.51449   
     axis 9.09556e-015 90 90   XYZ
    dof ry
    limits (-180.0 0.0)
 end
  begin
     id 21 
     name lhand
     direction 1 -4.4902e-011 -2.07528e-026   
     length 0.640951   
     axis 1.3242e-014 90 90   XYZ
    dof rx rz
    limits (-90.0 90.0)
           (-45.0 45.0)
  end
  begin
     id 22 
     name lfingers
     direction 1 -4.49014e-011 -4.15056e-026   
     length 0.516751   
     axis 2.64841e-014 90 90   XYZ
    dof rx
    limits (0.0 90.0)
  end
  begin
     id 23
     name lthumb
     direction 0.707107 -6.35008e-011 0.707107   
     length 0.741954   
     axis -90 45 2.85299e-015   XYZ
    dof rx rz
    limits (-45.0 45.0)
           (-45.0 45.0)
  end
  begin
     id 24 
     name rclavicle
     direction -0.888531 0.455324 -0.0565039   
     length 3.20126  
     axis 0 0 0   XYZ 
    dof ry rz
    limits (-10.0 20.0)
           (-20.0 0.0)
  end
  begin
     id 25 
     name rhumerus
     direction -1 -4.48946e-011 -8.98298e-028  
     length 5.3519   
     axis 180 30 90   XYZ
    dof rx ry rz
    limits (-90.0 60.0)
           (-90.0 90.0)
           (-90.0 90.0)
  end
  begin
     id 26 
     name rradius
     direction -1 -4.4899e-011 -3.18779e-027   
     length 3.02531   
     axis 180 30 90   XYZ
    dof rx
    limits (-10.0 170.0)
  end
  begin
     id 27 
     name rwrist
     direction -1 -4.4897e-011 -1.03764e-026   
     length 1.51266   
     axis 9.09556e-015 -90 -90   XYZ
    dof ry
    limits (-180.0 0.0)
  end
  begin
     id 28
     name rhand
     direction -1 -4.48941e-011 -2.07528e-026   
     length 0.78389   
     axis 1.3242e-014 -90 -90   XYZ
    dof rx rz
    limits (-90.0 90.0)
           (-45.0 45.0)
  end
  begin
     id 29
     name rfingers
     direction -1 -4.49012e-011 -4.15056e-026   
     length 0.631992   
     axis 2.64841e-014 -90 -90   XYZ
    dof rx
    limits (0.0 90.0)
  end
  begin
     id 30
     name rthumb
     direction -0.707107 -6.3496e-011 0.707107   
     length 0.907418   
     axis -90 -45 -2.85299e-015   XYZ
    dof rx rz
    limits (-45.0 45.0)
           (-45.0 45.0)
  end
:hierarchy
  begin
    root lhipjoint rhipjoint lowerback
    lhipjoint lfemur
    lfemur ltibia
    ltibia lfoot
    lfoot ltoes
    rhipjoint rfemur
    rfemur rtibia
    rtibia rfoot
    rfoot rtoes
    lowerback upperback
    upperback thorax
    thorax lowerneck lclavicle rclavicle
    lowerneck upperneck
    upperneck head
    lclavicle lhumerus
    lhumerus lradius
    lradius lwrist
    lwrist lhand lthumb
    lhand lfingers
    rclavicle rhumerus
    rhumerus rradius
    rradius rwrist
    rwrist rhand rthumb
    rhand rfingers
  end

#!OML:ASF E:\Style3\Style3.ASF
:FULLY-SPECIFIED
:DEGREES
664
root -2.65858 17.6436 0.516254 -320.412 86.2823 -344.416
lowerback 22.4045 3.89974 -5.06531
upperback 15.7075 5.59152 4.78361
thorax 4.02477 2.69349 7.04651
lowerneck -1.11983 -14.5472 -9.67107
upperneck 16.188 -22.3052 23.3188
head 9.15158 -9.82299 7.13906
rclavicle 7.95139e-014 7.95139e-015
rhumerus 72.5429 -0.153381 -128.435
rradius 11.3052
rwrist -28.9859
rhand -16.188 8.83985
rfingers 7.12502
rthumb 10.0188 -20.9017
lclavicle 7.95139e-014 7.95139e-015
lhumerus 13.7997 -53.3336 80.452
lradius 126.929
lwrist 74.5647
lhand -41.6747 34.1121
lfingers 7.12502
lthumb -14.5817 63.5795
rfemur -43.3737 8.03724 7.13875
rtibia 24.2775
rfoot -4.08292 -13.7075
rtoes -23.1806
lfemur -37.9014 -3.393 -15.1205
ltibia 17.8087
lfoot -2.27418 22.7542
ltoes -20.5221
665
root -2.6644 17.6409 0.512804 -321.347 85.9869 -345.388
lowerback 22.5174 3.8994 -5.11402
upperback 15.7152 5.57555 4.77006
thorax 3.98043 2.68245 7.05595
lowerneck -0.990436 -14.5385 -9.73397
upperneck 16.3041 -22.2951 23.262
head 9.16463 -9.82669 7.1433
rclavicle -7.95139e-015 -3.65764e-014
rhumerus 73.0351 -1.58804 -132.365
rradius 10.279
rwrist -24.7776
rhand -17.5288 8.69123
rfingers 7.12502
rthumb 8.72507 -21.1084
lclavicle -7.95139e-015 -3.65764e-014
lhumerus 13.6963 -53.4096 80.6111
lradius 126.888
lwrist 74.6798
lhand -41.871 34.4003
lfingers 7.12502
lthumb -14.7709 63.854
rfemur -43.5178 8.16393 7.03862
rtibia 24.2713
rfoot -3.95229 -13.5933
rtoes -23.4575
lfemur -37.9724 -3.19648 -15.221
ltibia 17.9323
lfoot -2.50745 22.8202
ltoes -20.0013
666
root -2.67056 17.638 0.509713 -323.123 85.7039 -347.232
lowerback 22.5161 3.98494 -5.18642
upperback 15.7125 5.66687 4.86116
thorax 3.95091 2.71646 7.17738
lowerneck -0.669785 -14.5866 -9.74973
upperneck 16.3355 -22.3311 23.1259
head 9.10374 -9.8735 7.1165
rclavicle 1.59028e-014 1.03368e-014
rhumerus 73.3089 -1.8546 -131.9
rradius 9.46074
rwrist -25.0226
rhand -19.6846 8.87651
rfingers 7.12502
rthumb 6.64433 -20.9992
lclavicle 1.59028e-014 1.03368e-014
lhumerus 13.5531 -53.7469 80.9796
lradius 126.761
lwrist 74.7396
lhand -42.1802 34.1319
lfingers 7.12502
lthumb -15.0688 63.5635
rfemur -43.7122 8.32904 7.00627
rtibia 24.2608
rfoot -3.84996 -13.4795
rtoes -23.5879
lfemur -38.0722 -2.96011 -15.2378
ltibia 18.0379
lfoot -2.64835 22.888
ltoes -19.6341
667
root -2.67668 17.6355 0.506941 -324.397 85.393 -348.587
lowerback 22.5175 4.0773 -5.30041
upperback 15.7311 5.76245 4.93778
thorax 3.94295 2.74959 7.30725
lowerneck -0.500798 -14.6812 -9.74156
upperneck 16.3931 -22.4301 22.9213
head 9.08021 -9.94078 7.03926
rclavicle -7.4743e-014 -3.4191e-014
rhumerus 73.594 -2.30338 -131.378
rradius 8.97687
rwrist -25.251
rhand -21.6056 8.84372
rfingers 7.12502
rthumb 4.78957 -21.0821
lclavicle -7.4743e-014 -3.4191e-014
lhumerus 13.687 -53.9554 81.0979
lradius 126.672
lwrist 75.0527
lhand -42.5296 34.2867
lfingers 7.12502
lthumb -15.4053 63.6927
rfemur -43.9116 8.52097 6.91122
rtibia 24.2168
rfoot -3.79743 -13.3362
rtoes -23.5198
lfemur -38.1822 -2.73374 -15.2853
ltibia 18.1453
lfoot -2.70855 22.9692
ltoes -19.7356
668
root -2.68333 17.6336 0.504228 -324.622 85.0815 -348.931
lowerback 22.5093 4.04511 -5.35768
upperback 15.7649 5.70961 4.88733
thorax 3.99659 2.71683 7.29925
lowerneck -0.55104 -14.7134 -9.71058
upperneck 16.5376 -22.4593 22.681
head 9.10622 -9.9548 6.94302
rclavicle -4.13472e-014 3.97569e-015
rhumerus 73.8744 -2.5268 -131.056
rradius 8.36608
rwrist -25.5543
rhand -23.6506 8.67553
rfingers 7.12502
rthumb 2.81483 -21.2856
lclavicle -4.13472e-014 3.97569e-015
lhumerus 13.7646 -53.9108 80.9832
lradius 126.73
lwrist 75.4829
lhand -42.8556 34.2628
lfingers 7.12502
lthumb -15.7193 63.6444
rfemur -44.1413 8.71422 6.71584
rtibia 24.1733
rfoot -3.65297 -13.2667
rtoes -23.7975
lfemur -38.3456 -2.51612 -15.4189
ltibia 18.2417
lfoot -2.75861 23.0104
ltoes -19.8065
669
root -2.68861 17.6333 0.500069 -325.162 84.7839 -349.622
lowerback 22.5113 3.98684 -5.3387
upperback 15.7698 5.63121 4.80863
thorax 4.0222 2.67904 7.21882
lowerneck -0.458736 -14.6733 -9.74382
upperneck 16.6892 -22.4168 22.6428
head 9.13174 -9.9356 6.95311
rclavicle 7.95139e-015 -1.90833e-014
rhumerus 74.0346 -2.71112 -130.786
rradius 7.76272
rwrist -26.0777
rhand -25.727 8.60102
rfingers 7.12502
rthumb 0.809401 -21.3772
lclavicle 7.95139e-015 -1.90833e-014
lhumerus 13.4865 -54.0601 81.1693
lradius 126.71
lwrist 75.469
lhand -42.9562 33.8857
lfingers 7.12502
lthumb -15.8162 63.2597
rfemur -44.3935 8.895 6.55864
rtibia 24.1392
rfoot -3.53081 -13.1996
rtoes -23.9367
lfemur -38.5266 -2.27004 -15.5256
ltibia 18.3377
lfoot -3.01163 23.0491
ltoes -19.2268
670
root -2.69228 17.6307 0.495506 -325.115 84.4514 -349.692
lowerback 22.5276 4.00914 -5.43532
upperback 15.8045 5.64089 4.78113
thorax 4.05062 2.6745 7.24315
lowerneck -0.381618 -14.7093 -9.69627
upperneck 16.7609 -22.471 22.6127
head 9.14267 -9.96191 6.93401
rclavicle 1.11319e-014 3.26007e-014
rhumerus 74.3659 -3.04674 -130.396
rradius 7.07638
rwrist -26.6402
rhand -27.3603 8.75156
rfingers 7.12502
rthumb -0.768089 -21.2268
lclavicle 1.11319e-014 3.26007e-014
lhumerus 13.5042 -54.3882 81.2614
lradius 126.53
lwrist 75.427
lhand -43.2009 33.5769
lfingers 7.12502
lthumb -16.0519 62.932
rfemur -44.618 9.06559 6.33918
rtibia 24.1143
rfoot -3.47567 -13.1502
rtoes -23.914
lfemur -38.6833 -2.02663 -15.7145
ltibia 18.4532
lfoot -2.95832 23.0963
ltoes -19.434
671
root -2.6963 17.6266 0.492336 -325.368 84.1813 -350.035
lowerback 22.561 3.98558 -5.45092
upperback 15.8647 5.60983 4.75138
thorax 4.11188 2.65563 7.22869
lowerneck -0.546717 -14.7832 -9.66533
upperneck 17.0001 -22.5922 22.4894
head 9.25926 -9.99745 6.85699
rclavicle -6.36111e-015 3.4191e-014
rhumerus 74.541 -3.41855 -130.006
rradius 6.70711
rwrist -27.228
rhand -28.5526 8.60006
rfingers 7.12502
rthumb -1.9196 -21.3711
lclavicle -6.36111e-015 3.4191e-014
lhumerus 13.6492 -54.5066 81.1562
lradius 126.373
lwrist 75.6014
lhand -43.274 33.3633
lfingers 7.12502
lthumb -16.1222 62.7127
rfemur -44.8059 9.18555 6.21783
rtibia 24.0858
rfoot -3.29309 -13.0045
rtoes -24.9868
lfemur -38.8251 -1.77554 -15.8511
ltibia 18.5843
lfoot -3.08252 23.0845
ltoes -19.0381
672
root -2.69968 17.6243 0.48962 -325.983 83.9127 -350.689
lowerback 22.6292 3.93034 -5.45159
upperback 15.9332 5.54134 4.71827
thorax 4.17364 2.61972 7.20867
lowerneck -0.649905 -14.815 -9.68055
upperneck 17.234 -22.6505 22.3561
head 9.35438 -10.0117 6.79883
rclavicle -3.02153e-014 -2.22639e-014
rhumerus 74.5703 -3.70521 -129.646
rradius 6.40403
rwrist -27.8661
rhand -29.716 8.76458
rfingers 7.12502
rthumb -3.04317 -21.1934
lclavicle -3.02153e-014 -2.22639e-014
lhumerus 13.5593 -54.586 81.1847
lradius 126.296
lwrist 75.7943
lhand -43.1063 33.936
lfingers 7.12502
lthumb -15.9607 63.2984
rfemur -44.9358 9.30538 6.16538
rtibia 24.0514
rfoot -3.00081 -12.7604
rtoes -26.9572
lfemur -38.9104 -1.50768 -15.951
ltibia 18.7135
lfoot -3.23635 23.0514
ltoes -18.8762
